<svg width="53" height="56" viewBox="0 0 53 56" fill="none" xmlns="http://www.w3.org/2000/svg">
<g id="CSC LOGO 1" clip-path="url(#clip0_367_36)">
<g id="Layer_x0020_1">
<g id="_105553336890016">
<path id="Vector" fill-rule="evenodd" clip-rule="evenodd" d="M39.5979 35.8813L49.9578 44.0869C50.1694 44.2611 50.3035 44.5114 50.3312 44.7838C50.3381 44.8308 50.3422 44.8792 50.3422 44.9262C50.3422 45.1502 50.262 45.366 50.1182 45.536C47.4923 48.7663 44.186 51.3908 40.4372 53.2064C36.6166 55.04 32.4129 55.9983 28.169 55.9983C24.4092 55.9983 20.6812 55.2474 17.2145 53.7955C10.4332 51.023 5.03063 45.6536 2.22493 38.8861C0.76054 35.4485 0 31.7481 0 28.0104C0 24.2727 0.76054 20.5737 2.22631 17.1361C3.63123 13.8035 5.6764 10.7641 8.23181 8.20595C10.8163 5.66159 13.875 3.62473 17.2159 2.22395C20.6812 0.758181 24.4133 -0.000976562 28.1787 -0.000976562C32.4046 -0.000976562 36.5889 0.957304 40.393 2.78952C44.1293 4.57886 47.4356 7.18267 50.0463 10.4005C50.1901 10.5954 50.2703 10.8319 50.2703 11.0753C50.2703 11.1195 50.2676 11.1651 50.262 11.2094C50.2316 11.4818 50.0961 11.7321 49.8859 11.9063L39.526 20.0676C39.3462 20.2252 39.1153 20.3124 38.8761 20.3124C38.8512 20.3124 38.8263 20.311 38.8014 20.3096C38.5387 20.2944 38.2953 20.1672 38.1321 19.9611C36.8516 18.5451 35.3084 17.3753 33.5965 16.5276C31.915 15.6565 30.0469 15.1974 28.1524 15.1905C28.1414 15.1905 28.1276 15.1905 28.1165 15.1905C21.0365 15.1905 15.2965 20.9319 15.2965 28.0104C15.2965 31.408 16.6475 34.67 19.0481 37.0733C21.3864 39.4821 24.6028 40.8414 27.9602 40.8414C28.0238 40.8414 28.0888 40.84 28.1511 40.84C30.0552 40.8304 31.9344 40.3685 33.6269 39.4973C35.3596 38.6483 36.9097 37.4591 38.1847 36.0113C38.3506 35.8067 38.594 35.6808 38.8567 35.6628C38.894 35.6587 38.9314 35.6573 38.9687 35.6573C39.1969 35.6573 39.4195 35.7361 39.5979 35.8799V35.8813Z" fill="#3C3C3C"/>
<path id="Vector_2" fill-rule="evenodd" clip-rule="evenodd" d="M32.6161 25.4218H26.1087C26.1004 25.4218 26.0921 25.4204 26.0824 25.4204C25.857 25.4204 25.6703 25.5946 25.6565 25.82V26.6774C25.6703 26.9014 25.857 27.077 26.0824 27.077C26.0907 27.077 26.1004 27.077 26.1087 27.077H32.1639C32.1722 27.077 32.1805 27.0756 32.1902 27.0756C32.4156 27.0756 32.6023 27.2499 32.6161 27.4753V32.0205C32.6023 32.2445 32.4156 32.4201 32.1902 32.4201C32.1819 32.4201 32.1722 32.4201 32.1639 32.4188H18.665C20.3825 36.1122 24.0925 38.4796 28.169 38.4796C33.9574 38.4796 38.6507 33.7864 38.6507 27.998C38.6507 27.1309 38.5414 26.2625 38.3298 25.4218H32.6161Z" fill="#3C3C3C"/>
<path id="Vector_3" fill-rule="evenodd" clip-rule="evenodd" d="M22.6586 30.577H30.0856C30.0953 30.577 30.105 30.5784 30.1146 30.5784C30.3387 30.5784 30.5253 30.4028 30.5378 30.1787V29.3159C30.5226 29.0919 30.3373 28.9162 30.1119 28.9162C30.1036 28.9162 30.0939 28.9162 30.0856 28.9176H24.0179C24.0096 28.9176 24.0013 28.9176 23.9916 28.9176C23.7662 28.9176 23.5795 28.7434 23.5657 28.518V23.9824C23.5781 23.7584 23.7634 23.5828 23.9888 23.5828C23.9985 23.5828 24.0082 23.5828 24.0179 23.5842H37.673C35.957 19.8838 32.2469 17.5137 28.1663 17.5137C22.3806 17.5137 17.6874 22.2055 17.6874 27.9925C17.6874 28.8637 17.7966 29.7349 18.011 30.5784H22.6572L22.6586 30.577Z" fill="#3C3C3C"/>
<path id="Vector_4" fill-rule="evenodd" clip-rule="evenodd" d="M50.5787 38.5872L47.8352 37.8364C47.383 37.7105 47.2517 37.3275 47.4079 36.6845C47.549 36.1134 47.6126 35.8272 47.7218 35.2533C47.7246 35.2505 47.726 35.2464 47.726 35.2422C47.726 35.2381 47.7246 35.2353 47.7218 35.2312L47.0595 35.0957C47.0498 35.0957 47.0415 35.1026 47.0373 35.1109C47.0028 35.2837 46.9834 35.3709 46.9461 35.5437C46.9461 35.5534 46.953 35.5617 46.9613 35.5658L47.2752 35.635C47.1092 36.4038 47.0138 36.791 46.8078 37.5529L45.7942 37.2764C45.3323 37.1505 45.1885 36.7799 45.3365 36.1743C45.5591 35.2671 45.6504 34.8081 45.8136 33.8885C45.92 33.2759 46.1994 32.9993 46.6737 33.0685L48.7672 33.3824C49.2415 33.4515 49.4324 33.8318 49.3162 34.5066C49.2125 35.1067 49.153 35.404 49.0272 36.0014C49.0244 36.0042 49.023 36.0083 49.023 36.0125C49.023 36.0166 49.0244 36.0194 49.0272 36.0235L49.7048 36.1715C49.749 35.9668 49.7684 35.8576 49.8085 35.6626L49.46 35.5935C49.6259 34.7735 49.6992 34.3628 49.8181 33.54L51.5702 33.7945C51.3586 35.4082 51.0212 37.0205 50.5787 38.5845V38.5872Z" fill="#3C3C3C"/>
<path id="Vector_5" fill-rule="evenodd" clip-rule="evenodd" d="M51.6559 33.254L46.0237 32.51C46.1247 31.7688 46.162 31.3982 46.2187 30.6543L51.8688 31.0913C51.8149 31.9583 51.7707 32.3911 51.6559 33.254Z" fill="#3C3C3C"/>
<path id="Vector_6" fill-rule="evenodd" clip-rule="evenodd" d="M49.7905 30.5453L48.3718 30.4513C48.4381 29.4654 48.4561 28.9731 48.4533 27.9844H49.879C49.879 29.0173 49.8638 29.529 49.7905 30.5453Z" fill="#3C3C3C"/>
<path id="Vector_7" fill-rule="evenodd" clip-rule="evenodd" d="M52.0002 27.5996L49.1558 27.6272C48.6843 27.6272 48.452 27.3133 48.4271 26.644C48.4077 26.0605 48.3897 25.7687 48.3455 25.188C48.3455 25.1769 48.3372 25.1686 48.3275 25.1686L47.6527 25.2225C47.6527 25.2225 47.6527 25.2225 47.6527 25.2419L47.6845 25.6816C47.6845 25.6927 47.6928 25.701 47.7039 25.701L48.033 25.6788C48.0828 26.4643 48.0966 26.8556 48.1049 27.641H47.0567C46.5769 27.641 46.3377 27.3271 46.3128 26.7146C46.2782 25.7729 46.2464 25.3207 46.1496 24.3942C46.0832 23.7664 46.2782 23.4373 46.7525 23.3737L48.8488 23.0944C49.3259 23.0308 49.6149 23.3447 49.684 24.0361C49.7504 24.639 49.7753 24.9432 49.8126 25.5461C49.8126 25.5572 49.8209 25.5655 49.832 25.5655L50.5262 25.5212C50.5262 25.3166 50.504 25.2073 50.4888 25.0068L50.1348 25.0358C50.0712 24.2075 50.0284 23.7803 49.9177 22.9672L51.6725 22.7349C51.8938 24.2822 52.003 25.8475 52.003 27.4115C52.003 27.4723 52.003 27.5373 52.003 27.5982V27.5996H52.0002Z" fill="#3C3C3C"/>
<path id="Vector_8" fill-rule="evenodd" clip-rule="evenodd" d="M51.5826 22.2109L48.7576 22.6216C48.2902 22.6908 48.0192 22.3921 47.9071 21.7394C47.8062 21.1641 47.7509 20.8765 47.6278 20.304C47.6278 20.304 47.6278 20.2847 47.6057 20.304L46.9433 20.4451C46.942 20.4492 46.9406 20.452 46.9406 20.4561C46.9406 20.4603 46.942 20.4631 46.9433 20.4672C46.9807 20.6401 47 20.7286 47.0346 20.9C47.0387 20.9097 47.047 20.9152 47.0567 20.9152L47.3706 20.8489C47.5283 21.6218 47.5974 22.0104 47.7094 22.7889L46.6709 22.9397C46.1966 23.0088 45.9173 22.7322 45.8108 22.1197C45.6504 21.2001 45.5564 20.741 45.3338 19.8339C45.1858 19.2282 45.3338 18.8604 45.7928 18.7318L47.8339 18.1731C48.2985 18.0473 48.6248 18.3211 48.7755 18.989C48.9194 19.5795 48.9885 19.8781 49.1088 20.4741C49.1088 20.4741 49.1088 20.4935 49.1309 20.4893L49.8085 20.3538C49.7684 20.1492 49.749 20.0399 49.7048 19.8449L49.3563 19.9196C49.1807 19.1038 49.0798 18.6986 48.8599 17.8883L50.5649 17.4209C51.0171 18.9848 51.3669 20.5944 51.5868 22.2068L51.5854 22.2054L51.5826 22.2109Z" fill="#3C3C3C"/>
</g>
</g>
</g>
<defs>
<clipPath id="clip0_367_36">
<rect width="52.0016" height="56" fill="white"/>
</clipPath>
</defs>
</svg>
