<svg width="56" height="56" viewBox="0 0 56 56" fill="none" xmlns="http://www.w3.org/2000/svg">
<g id="Frame">
<path id="Vector" d="M28 5.25C23.5005 5.25 19.102 6.58426 15.3608 9.08407C11.6196 11.5839 8.70364 15.1369 6.98175 19.294C5.25986 23.451 4.80933 28.0252 5.68715 32.4383C6.56496 36.8514 8.73169 40.905 11.9133 44.0867C15.095 47.2683 19.1486 49.4351 23.5617 50.3129C27.9748 51.1907 32.549 50.7402 36.7061 49.0183C40.8631 47.2964 44.4161 44.3804 46.9159 40.6392C49.4157 36.898 50.75 32.4995 50.75 28C50.7436 21.9683 48.3447 16.1854 44.0797 11.9204C39.8146 7.65528 34.0317 5.25637 28 5.25ZM32.7381 35.5119C32.9007 35.6745 33.0297 35.8675 33.1177 36.0799C33.2057 36.2924 33.251 36.5201 33.251 36.75C33.251 36.9799 33.2057 37.2076 33.1177 37.4201C33.0297 37.6325 32.9007 37.8255 32.7381 37.9881C32.5755 38.1507 32.3825 38.2797 32.1701 38.3677C31.9576 38.4557 31.73 38.501 31.5 38.501C31.2701 38.501 31.0424 38.4557 30.8299 38.3677C30.6175 38.2797 30.4245 38.1507 30.2619 37.9881L21.5119 29.2381C21.3492 29.0756 21.2201 28.8826 21.132 28.6701C21.044 28.4577 20.9986 28.23 20.9986 28C20.9986 27.77 21.044 27.5423 21.132 27.3299C21.2201 27.1174 21.3492 26.9244 21.5119 26.7619L30.2619 18.0119C30.4245 17.8493 30.6175 17.7203 30.8299 17.6323C31.0424 17.5443 31.2701 17.499 31.5 17.499C31.73 17.499 31.9576 17.5443 32.1701 17.6323C32.3825 17.7203 32.5755 17.8493 32.7381 18.0119C32.9007 18.1745 33.0297 18.3675 33.1177 18.5799C33.2057 18.7924 33.251 19.0201 33.251 19.25C33.251 19.4799 33.2057 19.7076 33.1177 19.9201C33.0297 20.1325 32.9007 20.3255 32.7381 20.4881L25.2241 28L32.7381 35.5119Z" fill="white"/>
</g>
</svg>
