<svg id="Layer_1" data-name="Layer 1" xmlns="http://www.w3.org/2000/svg" viewBox="0 0 432 432"><defs><style>.cls-1{fill:#231f20;}</style></defs><path class="cls-1" d="M259.3,246l33,26.14a3.31,3.31,0,0,1,1.19,2.22,3,3,0,0,1-.68,2.4,90.72,90.72,0,0,1-30.84,24.43A90.25,90.25,0,0,1,188,303.07a87.56,87.56,0,0,1-47.75-47.5,88.17,88.17,0,0,1,0-69.28,89.51,89.51,0,0,1,19.14-28.45A91,91,0,0,1,188,138.79a89.57,89.57,0,0,1,73.83,1.8,89.4,89.4,0,0,1,30.75,24.25,3.57,3.57,0,0,1,.69,2.57,3.37,3.37,0,0,1-1.2,2.22l-33,26a3.14,3.14,0,0,1-2.31.77,2.92,2.92,0,0,1-2.13-1.11,48.66,48.66,0,0,0-14.45-10.94,38.08,38.08,0,0,0-17.34-4.26,40.84,40.84,0,0,0-29,69.71,39.57,39.57,0,0,0,29,12,38.6,38.6,0,0,0,17.44-4.28,46.86,46.86,0,0,0,14.52-11.1,3,3,0,0,1,2.14-1.11A3.18,3.18,0,0,1,259.3,246Z"/><path class="cls-1" d="M237.06,212.68H216.33a1.36,1.36,0,0,0-1.44,1.27v2.73a1.36,1.36,0,0,0,1.44,1.27h19.29a1.36,1.36,0,0,1,1.44,1.27V233.7a1.36,1.36,0,0,1-1.44,1.27h-43a33.39,33.39,0,0,0,62.64-22.29Z"/><path class="cls-1" d="M205.34,229.1H229a1.35,1.35,0,0,0,1.44-1.27v-2.75a1.36,1.36,0,0,0-1.44-1.27H209.67a1.36,1.36,0,0,1-1.44-1.27V208.09a1.35,1.35,0,0,1,1.44-1.27h43.5a33.38,33.38,0,0,0-62.63,22.28Z"/><path class="cls-1" d="M294.28,254.62l-8.74-2.39c-1.44-.4-1.86-1.62-1.36-3.67.45-1.82.65-2.73,1-4.56a.06.06,0,0,0,0-.07l-2.11-.43a.08.08,0,0,0-.07.05c-.11.55-.17.83-.29,1.38a.08.08,0,0,0,.05.07l1,.22c-.53,2.45-.83,3.68-1.49,6.11l-3.23-.88c-1.47-.4-1.93-1.58-1.46-3.51.71-2.89,1-4.35,1.52-7.28.34-1.95,1.23-2.83,2.74-2.61l6.67,1c1.51.22,2.12,1.43,1.75,3.58-.33,1.91-.52,2.86-.92,4.76a.06.06,0,0,0,0,.07l2.16.47c.14-.65.2-1,.33-1.62l-1.11-.22c.53-2.61.76-3.92,1.14-6.54l5.58.81A106,106,0,0,1,294.28,254.62Z"/><path class="cls-1" d="M297.71,237.63l-17.94-2.37c.32-2.36.44-3.54.62-5.91l18,1.39C298.22,233.5,298.08,234.88,297.71,237.63Z"/><path class="cls-1" d="M291.77,229l-4.52-.3c.21-3.14.27-4.71.26-7.86h4.54C292.05,224.13,292,225.76,291.77,229Z"/><path class="cls-1" d="M298.81,219.62l-9.06.09c-1.5,0-2.24-1-2.32-3.13-.06-1.86-.12-2.79-.26-4.64a.06.06,0,0,0-.06-.06l-2.15.17s0,0,0,.06l.1,1.4a.06.06,0,0,0,.06.06l1.05-.07c.16,2.5.2,3.75.23,6.25l-3.34,0c-1.53,0-2.29-1-2.37-2.95-.11-3-.21-4.44-.52-7.39-.21-2,.41-3.05,1.92-3.25l6.68-.89c1.52-.2,2.44.8,2.66,3,.21,1.92.29,2.89.41,4.81a.06.06,0,0,0,.06.06l2.21-.14c0-.65-.07-1-.12-1.64l-1.13.09c-.2-2.64-.34-4-.69-6.59l5.59-.74A106.05,106.05,0,0,1,298.81,219.62Z"/><path class="cls-1" d="M297.48,202.45l-9,1.31c-1.49.22-2.35-.73-2.71-2.81-.32-1.83-.5-2.75-.89-4.57,0,0,0-.06-.07,0l-2.11.45a.1.1,0,0,0,0,.07c.12.55.18.83.29,1.38a.08.08,0,0,0,.07.05l1-.21c.5,2.46.72,3.7,1.08,6.18l-3.31.48c-1.51.22-2.4-.66-2.74-2.61-.51-2.93-.81-4.39-1.52-7.28-.47-1.93,0-3.1,1.46-3.51l6.5-1.78c1.48-.4,2.52.47,3,2.6.46,1.88.68,2.83,1.06,4.73,0,0,0,.06.07.05l2.16-.43c-.13-.65-.19-1-.33-1.62l-1.11.24c-.56-2.6-.88-3.89-1.58-6.47l5.43-1.49A106.28,106.28,0,0,1,297.48,202.45Z"/></svg>