<svg width="48" height="49" viewBox="0 0 48 49" fill="none" xmlns="http://www.w3.org/2000/svg">
<g id="Frame">
<path id="Vector" d="M37.4999 12.5V32C37.4999 32.3978 37.3418 32.7794 37.0605 33.0607C36.7792 33.342 36.3977 33.5 35.9999 33.5C35.602 33.5 35.2205 33.342 34.9392 33.0607C34.6579 32.7794 34.4999 32.3978 34.4999 32V16.1206L13.0611 37.5613C12.7796 37.8427 12.3979 38.0008 11.9999 38.0008C11.6018 38.0008 11.2201 37.8427 10.9386 37.5613C10.6571 37.2798 10.499 36.898 10.499 36.5C10.499 36.102 10.6571 35.7202 10.9386 35.4387L32.3792 14H16.4999C16.102 14 15.7205 13.842 15.4392 13.5607C15.1579 13.2794 14.9999 12.8978 14.9999 12.5C14.9999 12.1022 15.1579 11.7206 15.4392 11.4393C15.7205 11.158 16.102 11 16.4999 11H35.9999C36.3977 11 36.7792 11.158 37.0605 11.4393C37.3418 11.7206 37.4999 12.1022 37.4999 12.5Z" fill="white"/>
</g>
</svg>
