<svg width="20" height="21" viewBox="0 0 20 21" fill="none" xmlns="http://www.w3.org/2000/svg">
<g id="MUSIC">
<path id="Vector" d="M18.9728 0.658033C18.8846 0.58806 18.7813 0.53945 18.6711 0.516002C18.561 0.492554 18.4469 0.494903 18.3377 0.522867L6.48756 3.48541C6.32748 3.52543 6.18535 3.61775 6.08372 3.74773C5.98208 3.87771 5.92676 4.03791 5.92653 4.20291V14.3959C5.30862 13.9831 4.57044 13.7886 3.82932 13.8433C3.08819 13.8981 2.38663 14.199 1.83612 14.6982C1.2856 15.1974 0.917722 15.8663 0.790934 16.5985C0.664146 17.3308 0.785725 18.0844 1.13635 18.7396C1.48698 19.3948 2.04653 19.9141 2.7261 20.2149C3.40567 20.5156 4.16626 20.5806 4.88701 20.3996C5.60776 20.2185 6.24732 19.8017 6.70405 19.2155C7.16078 18.6293 7.40849 17.9072 7.4078 17.1641V8.48471L17.7767 5.89248V11.4334C17.1588 11.0205 16.4206 10.826 15.6795 10.8808C14.9384 10.9355 14.2368 11.2364 13.6863 11.7356C13.1358 12.2348 12.7679 12.9037 12.6411 13.636C12.5143 14.3682 12.6359 15.1218 12.9865 15.7771C13.3372 16.4323 13.8967 16.9516 14.5763 17.2523C15.2559 17.5531 16.0165 17.6181 16.7372 17.437C17.458 17.2559 18.0975 16.8392 18.5542 16.2529C19.011 15.6667 19.2587 14.9447 19.258 14.2015V1.24036C19.2577 1.12803 19.2319 1.01722 19.1825 0.916334C19.1331 0.815447 19.0614 0.727118 18.9728 0.658033Z" fill="#7D7D7D"/>
</g>
</svg>
