<svg width="24" height="25" viewBox="0 0 24 25" fill="none" xmlns="http://www.w3.org/2000/svg">
<g id="Frame">
<path id="Vector" d="M12 2.5C10.0716 2.5 8.18657 3.07183 6.58319 4.14317C4.97982 5.21451 3.73013 6.73726 2.99218 8.51884C2.25422 10.3004 2.06114 12.2608 2.43735 14.1521C2.81355 16.0434 3.74215 17.7807 5.10571 19.1443C6.46928 20.5079 8.20656 21.4365 10.0979 21.8127C11.9892 22.1889 13.9496 21.9958 15.7312 21.2578C17.5127 20.5199 19.0355 19.2702 20.1068 17.6668C21.1782 16.0634 21.75 14.1784 21.75 12.25C21.7468 9.66513 20.7185 7.18705 18.8907 5.35927C17.063 3.53149 14.5849 2.50323 12 2.5ZM15.4163 12.8744L10.9163 15.8744C10.7928 15.9562 10.6481 15.9999 10.5 16C10.3011 16 10.1103 15.921 9.96967 15.7803C9.82902 15.6397 9.75 15.4489 9.75 15.25V9.25C9.74992 9.11419 9.78671 8.9809 9.85645 8.86436C9.9262 8.74782 10.0263 8.65241 10.146 8.58831C10.2657 8.52421 10.4006 8.49382 10.5363 8.50039C10.672 8.50696 10.8033 8.55025 10.9163 8.62562L15.4163 11.6256C15.5191 11.6941 15.6035 11.7869 15.6618 11.8958C15.7202 12.0048 15.7507 12.1264 15.7507 12.25C15.7507 12.3736 15.7202 12.4952 15.6618 12.6042C15.6035 12.7131 15.5191 12.8059 15.4163 12.8744Z" fill="white"/>
</g>
</svg>
