<svg width="56" height="56" viewBox="0 0 56 56" fill="none" xmlns="http://www.w3.org/2000/svg">
<g id="Frame">
<path id="Vector" d="M28 5.25C23.5005 5.25 19.102 6.58426 15.3608 9.08407C11.6196 11.5839 8.70364 15.1369 6.98175 19.294C5.25986 23.451 4.80933 28.0252 5.68715 32.4383C6.56496 36.8514 8.73169 40.905 11.9133 44.0867C15.095 47.2683 19.1486 49.4351 23.5617 50.3129C27.9748 51.1907 32.549 50.7402 36.7061 49.0183C40.8631 47.2964 44.4161 44.3804 46.9159 40.6392C49.4157 36.898 50.75 32.4995 50.75 28C50.7436 21.9683 48.3447 16.1854 44.0797 11.9204C39.8146 7.65528 34.0317 5.25637 28 5.25ZM34.4881 29.2381L25.7381 37.9881C25.5755 38.1507 25.3825 38.2797 25.1701 38.3677C24.9576 38.4557 24.73 38.501 24.5 38.501C24.2701 38.501 24.0424 38.4557 23.8299 38.3677C23.6175 38.2797 23.4245 38.1507 23.2619 37.9881C23.0993 37.8255 22.9703 37.6325 22.8823 37.4201C22.7943 37.2076 22.749 36.9799 22.749 36.75C22.749 36.5201 22.7943 36.2924 22.8823 36.0799C22.9703 35.8675 23.0993 35.6745 23.2619 35.5119L30.7759 28L23.2619 20.4881C22.9335 20.1598 22.749 19.7144 22.749 19.25C22.749 18.7856 22.9335 18.3402 23.2619 18.0119C23.5903 17.6835 24.0356 17.499 24.5 17.499C24.9644 17.499 25.4098 17.6835 25.7381 18.0119L34.4881 26.7619C34.6508 26.9244 34.7799 27.1174 34.868 27.3299C34.9561 27.5423 35.0014 27.77 35.0014 28C35.0014 28.23 34.9561 28.4577 34.868 28.6701C34.7799 28.8826 34.6508 29.0756 34.4881 29.2381Z" fill="white"/>
</g>
</svg>
